# xmcd CD database file
#
# Track frame offsets:
#	150
#	20286
#	40281
#	65883
#	81745
#	98276
#	117013
#	136382
#	153192
#	165643
#	183874
#	199575
#	217202
#	231514
#	248716
#	268342
#	283840
#	298467
#	319040
#
# Disc length: 4487 seconds
#
# Revision: 0
# Processed by: cddbd v1.4PL0 Copyright (c) Steve Scherf et al.
# Submitted via: CDex 1.50
#
DISCID=23118513
DTITLE=Lou Rawls - Unmistakably You - When You Hear Lou, You've Heard It All
DYEAR=1999
DGENRE=Jazz
TTITLE0=See You When I Git There
TTITLE1=Spring Again
TTITLE2=Early Morning Love
TTITLE3=Some Folks Never Learn
TTITLE4=Someday You'll Be Old
TTITLE5=Secret Tears
TTITLE6=We Understand Each Other
TTITLE7=It's Our Anniversary Today
TTITLE8=All The Way
TTITLE9=Lady Love
TTITLE10=I Wish It Were Yesterday
TTITLE11=One Life To Live
TTITLE12=Dollar Green
TTITLE13=Trade Winds
TTITLE14=There Will Be Love
TTITLE15=Unforgettable
TTITLE16=That Would Do It For Me
TTITLE17=I Coulda', Woulda', Shoulda'
TTITLE18=Not The Staying Kind
EXTD=YEAR: 1999
EXTT0=
EXTT1=
EXTT2=
EXTT3=
EXTT4=
EXTT5=
EXTT6=
EXTT7=
EXTT8=
EXTT9=
EXTT10=
EXTT11=
EXTT12=
EXTT13=
EXTT14=
EXTT15=
EXTT16=
EXTT17=
EXTT18=
PLAYORDER=
